<mxfile host="app.diagrams.net" modified="2022-10-27T11:27:27.176Z" agent="5.0 (X11; Linux x86_64) AppleWebKit/537.36 (KHTML, like Gecko) Chrome/106.0.0.0 Safari/537.36" etag="jAPd7JpW3ReMmiZlxCen" version="20.5.1" type="github" pages="2">
  <diagram id="C5RBs43oDa-KdzZeNtuy" name="Page-1">
    <mxGraphModel dx="1247" dy="642" grid="1" gridSize="10" guides="1" tooltips="1" connect="1" arrows="1" fold="1" page="1" pageScale="1" pageWidth="1169" pageHeight="1654" math="0" shadow="0">
      <root>
        <mxCell id="WIyWlLk6GJQsqaUBKTNV-0" />
        <mxCell id="WIyWlLk6GJQsqaUBKTNV-1" parent="WIyWlLk6GJQsqaUBKTNV-0" />
        <mxCell id="WIyWlLk6GJQsqaUBKTNV-2" value="" style="rounded=0;html=1;jettySize=auto;orthogonalLoop=1;fontSize=11;endArrow=classicThin;endFill=1;endSize=8;strokeWidth=3;shadow=0;labelBackgroundColor=none;edgeStyle=orthogonalEdgeStyle;strokeColor=#FFFFFF;" parent="WIyWlLk6GJQsqaUBKTNV-1" source="WIyWlLk6GJQsqaUBKTNV-3" edge="1">
          <mxGeometry relative="1" as="geometry">
            <mxPoint x="361" y="170" as="targetPoint" />
          </mxGeometry>
        </mxCell>
        <mxCell id="WIyWlLk6GJQsqaUBKTNV-3" value="MyApp (&lt;font color=&quot;#ff3333&quot;&gt;ChangeNotifierProvider&lt;/font&gt;)" style="rounded=1;whiteSpace=wrap;html=1;fontSize=12;glass=0;strokeWidth=3;shadow=0;strokeColor=#FFFFFF;" parent="WIyWlLk6GJQsqaUBKTNV-1" vertex="1">
          <mxGeometry x="281" y="80" width="160" height="40" as="geometry" />
        </mxCell>
        <mxCell id="0miQY7e_goJAAEUT_-6N-6" value="" style="edgeStyle=orthogonalEdgeStyle;rounded=0;orthogonalLoop=1;jettySize=auto;html=1;fontColor=#00994D;endArrow=classicThin;endFill=1;strokeWidth=3;strokeColor=#FFFFFF;" parent="WIyWlLk6GJQsqaUBKTNV-1" source="0miQY7e_goJAAEUT_-6N-0" target="0miQY7e_goJAAEUT_-6N-5" edge="1">
          <mxGeometry relative="1" as="geometry" />
        </mxCell>
        <mxCell id="0miQY7e_goJAAEUT_-6N-8" value="" style="edgeStyle=orthogonalEdgeStyle;rounded=0;orthogonalLoop=1;jettySize=auto;html=1;fontColor=#FF3333;endArrow=classicThin;endFill=1;strokeWidth=3;strokeColor=#FFFFFF;" parent="WIyWlLk6GJQsqaUBKTNV-1" source="0miQY7e_goJAAEUT_-6N-0" target="0miQY7e_goJAAEUT_-6N-7" edge="1">
          <mxGeometry relative="1" as="geometry" />
        </mxCell>
        <mxCell id="0miQY7e_goJAAEUT_-6N-21" style="edgeStyle=orthogonalEdgeStyle;rounded=0;orthogonalLoop=1;jettySize=auto;html=1;exitX=1;exitY=0.5;exitDx=0;exitDy=0;entryX=0.5;entryY=0;entryDx=0;entryDy=0;fontColor=#FF3333;startArrow=classic;startFill=1;endArrow=classicThin;endFill=1;strokeWidth=3;strokeColor=#FFFFFF;" parent="WIyWlLk6GJQsqaUBKTNV-1" source="0miQY7e_goJAAEUT_-6N-0" target="0miQY7e_goJAAEUT_-6N-17" edge="1">
          <mxGeometry relative="1" as="geometry" />
        </mxCell>
        <mxCell id="0miQY7e_goJAAEUT_-6N-0" value="HomeScene (&lt;font color=&quot;#ff3333&quot;&gt;Consumer&lt;/font&gt;)" style="rounded=1;whiteSpace=wrap;html=1;fontSize=12;glass=0;strokeWidth=3;shadow=0;strokeColor=#FFFFFF;" parent="WIyWlLk6GJQsqaUBKTNV-1" vertex="1">
          <mxGeometry x="281" y="170" width="160" height="40" as="geometry" />
        </mxCell>
        <mxCell id="0miQY7e_goJAAEUT_-6N-1" value="" style="endArrow=classic;startArrow=classic;html=1;rounded=0;fontColor=#FF3333;strokeWidth=3;strokeColor=#FFFFFF;" parent="WIyWlLk6GJQsqaUBKTNV-1" edge="1">
          <mxGeometry width="50" height="50" relative="1" as="geometry">
            <mxPoint x="461" y="180" as="sourcePoint" />
            <mxPoint x="461" y="100" as="targetPoint" />
          </mxGeometry>
        </mxCell>
        <mxCell id="0miQY7e_goJAAEUT_-6N-3" value="&lt;font color=&quot;#00994d&quot;&gt;Provider.of&amp;lt;&amp;gt; = Interaction&lt;/font&gt;" style="text;html=1;strokeColor=#FFFFFF;fillColor=none;align=center;verticalAlign=middle;whiteSpace=wrap;rounded=0;fontColor=#FF3333;strokeWidth=3;" parent="WIyWlLk6GJQsqaUBKTNV-1" vertex="1">
          <mxGeometry x="441" y="120" width="197" height="30" as="geometry" />
        </mxCell>
        <mxCell id="0miQY7e_goJAAEUT_-6N-16" style="edgeStyle=orthogonalEdgeStyle;rounded=0;orthogonalLoop=1;jettySize=auto;html=1;exitX=0;exitY=0.5;exitDx=0;exitDy=0;entryX=0.5;entryY=1;entryDx=0;entryDy=0;fontColor=#FF3333;startArrow=none;startFill=0;endArrow=classicThin;endFill=1;strokeWidth=3;strokeColor=#FFFFFF;" parent="WIyWlLk6GJQsqaUBKTNV-1" source="0miQY7e_goJAAEUT_-6N-5" target="0miQY7e_goJAAEUT_-6N-7" edge="1">
          <mxGeometry relative="1" as="geometry" />
        </mxCell>
        <mxCell id="0miQY7e_goJAAEUT_-6N-18" style="edgeStyle=orthogonalEdgeStyle;rounded=0;orthogonalLoop=1;jettySize=auto;html=1;exitX=0.5;exitY=1;exitDx=0;exitDy=0;entryX=0;entryY=0.5;entryDx=0;entryDy=0;fontColor=#FF3333;startArrow=none;startFill=0;endArrow=classicThin;endFill=1;strokeWidth=3;strokeColor=#FFFFFF;" parent="WIyWlLk6GJQsqaUBKTNV-1" source="0miQY7e_goJAAEUT_-6N-5" target="0miQY7e_goJAAEUT_-6N-9" edge="1">
          <mxGeometry relative="1" as="geometry" />
        </mxCell>
        <mxCell id="0miQY7e_goJAAEUT_-6N-25" style="edgeStyle=orthogonalEdgeStyle;rounded=0;orthogonalLoop=1;jettySize=auto;html=1;exitX=1;exitY=0.5;exitDx=0;exitDy=0;entryX=0;entryY=0.5;entryDx=0;entryDy=0;strokeColor=#FFFFFF;fontColor=#FF3333;startArrow=classic;startFill=1;endArrow=classicThin;endFill=1;strokeWidth=3;" parent="WIyWlLk6GJQsqaUBKTNV-1" source="0miQY7e_goJAAEUT_-6N-5" target="0miQY7e_goJAAEUT_-6N-17" edge="1">
          <mxGeometry relative="1" as="geometry" />
        </mxCell>
        <mxCell id="0miQY7e_goJAAEUT_-6N-5" value="GameScene (&lt;font color=&quot;#ff3333&quot;&gt;Consumer&lt;/font&gt;)" style="rounded=1;whiteSpace=wrap;html=1;fontSize=12;glass=0;strokeWidth=3;shadow=0;strokeColor=#FFFFFF;" parent="WIyWlLk6GJQsqaUBKTNV-1" vertex="1">
          <mxGeometry x="281" y="310" width="160" height="40" as="geometry" />
        </mxCell>
        <mxCell id="0miQY7e_goJAAEUT_-6N-7" value="Canvas (&lt;font color=&quot;#ff3333&quot;&gt;Redraw&lt;/font&gt;)" style="rounded=1;whiteSpace=wrap;html=1;fontSize=12;glass=0;strokeWidth=3;shadow=0;strokeColor=#FFFFFF;" parent="WIyWlLk6GJQsqaUBKTNV-1" vertex="1">
          <mxGeometry x="50" y="170" width="160" height="40" as="geometry" />
        </mxCell>
        <mxCell id="0miQY7e_goJAAEUT_-6N-19" style="edgeStyle=orthogonalEdgeStyle;rounded=0;orthogonalLoop=1;jettySize=auto;html=1;exitX=0.5;exitY=0;exitDx=0;exitDy=0;entryX=0.5;entryY=1;entryDx=0;entryDy=0;fontColor=#FF3333;startArrow=none;startFill=0;endArrow=classicThin;endFill=1;strokeWidth=3;strokeColor=#FFFFFF;" parent="WIyWlLk6GJQsqaUBKTNV-1" source="0miQY7e_goJAAEUT_-6N-9" target="0miQY7e_goJAAEUT_-6N-17" edge="1">
          <mxGeometry relative="1" as="geometry" />
        </mxCell>
        <mxCell id="0miQY7e_goJAAEUT_-6N-9" value="Controller" style="rounded=1;whiteSpace=wrap;html=1;fontSize=12;glass=0;strokeWidth=3;shadow=0;strokeColor=#FFFFFF;" parent="WIyWlLk6GJQsqaUBKTNV-1" vertex="1">
          <mxGeometry x="570" y="400" width="160" height="40" as="geometry" />
        </mxCell>
        <mxCell id="0miQY7e_goJAAEUT_-6N-32" style="edgeStyle=orthogonalEdgeStyle;rounded=0;orthogonalLoop=1;jettySize=auto;html=1;exitX=1;exitY=0.5;exitDx=0;exitDy=0;entryX=0;entryY=0.5;entryDx=0;entryDy=0;strokeColor=#FFFFFF;fontColor=#FF3333;startArrow=none;startFill=0;endArrow=classicThin;endFill=1;strokeWidth=3;" parent="WIyWlLk6GJQsqaUBKTNV-1" source="0miQY7e_goJAAEUT_-6N-17" target="0miQY7e_goJAAEUT_-6N-29" edge="1">
          <mxGeometry relative="1" as="geometry" />
        </mxCell>
        <mxCell id="0miQY7e_goJAAEUT_-6N-35" style="edgeStyle=orthogonalEdgeStyle;rounded=0;orthogonalLoop=1;jettySize=auto;html=1;exitX=1;exitY=0.5;exitDx=0;exitDy=0;strokeColor=#FFFFFF;fontColor=#FF3333;startArrow=none;startFill=0;endArrow=classicThin;endFill=1;strokeWidth=3;" parent="WIyWlLk6GJQsqaUBKTNV-1" source="0miQY7e_goJAAEUT_-6N-17" target="0miQY7e_goJAAEUT_-6N-33" edge="1">
          <mxGeometry relative="1" as="geometry">
            <Array as="points">
              <mxPoint x="780" y="250" />
              <mxPoint x="780" y="250" />
            </Array>
          </mxGeometry>
        </mxCell>
        <mxCell id="0miQY7e_goJAAEUT_-6N-36" style="edgeStyle=orthogonalEdgeStyle;rounded=0;orthogonalLoop=1;jettySize=auto;html=1;exitX=1;exitY=0.5;exitDx=0;exitDy=0;entryX=0;entryY=0.5;entryDx=0;entryDy=0;strokeColor=#FFFFFF;fontColor=#FF3333;startArrow=none;startFill=0;endArrow=classicThin;endFill=1;strokeWidth=3;" parent="WIyWlLk6GJQsqaUBKTNV-1" source="0miQY7e_goJAAEUT_-6N-17" target="0miQY7e_goJAAEUT_-6N-34" edge="1">
          <mxGeometry relative="1" as="geometry" />
        </mxCell>
        <mxCell id="0miQY7e_goJAAEUT_-6N-17" value="Stage (&lt;font color=&quot;#ff3333&quot;&gt;Data holder,&lt;br&gt;ChangeNotifier&lt;/font&gt;)" style="rounded=1;whiteSpace=wrap;html=1;fontSize=12;glass=0;strokeWidth=3;shadow=0;strokeColor=#FFFFFF;" parent="WIyWlLk6GJQsqaUBKTNV-1" vertex="1">
          <mxGeometry x="570" y="230" width="160" height="40" as="geometry" />
        </mxCell>
        <mxCell id="0miQY7e_goJAAEUT_-6N-20" value="Modify" style="text;html=1;strokeColor=#FFFFFF;fillColor=none;align=center;verticalAlign=middle;whiteSpace=wrap;rounded=0;fontColor=#FF3333;strokeWidth=3;" parent="WIyWlLk6GJQsqaUBKTNV-1" vertex="1">
          <mxGeometry x="648" y="315" width="60" height="30" as="geometry" />
        </mxCell>
        <mxCell id="0miQY7e_goJAAEUT_-6N-22" value="" style="endArrow=classic;html=1;rounded=0;fontColor=#FF3333;fillColor=#e51400;strokeColor=#FFFFFF;strokeWidth=3;" parent="WIyWlLk6GJQsqaUBKTNV-1" edge="1">
          <mxGeometry width="50" height="50" relative="1" as="geometry">
            <mxPoint x="660" y="180" as="sourcePoint" />
            <mxPoint x="610" y="180" as="targetPoint" />
          </mxGeometry>
        </mxCell>
        <mxCell id="0miQY7e_goJAAEUT_-6N-23" value="Notify" style="text;html=1;strokeColor=#FFFFFF;fillColor=none;align=center;verticalAlign=middle;whiteSpace=wrap;rounded=0;fontColor=#FF3333;strokeWidth=3;" parent="WIyWlLk6GJQsqaUBKTNV-1" vertex="1">
          <mxGeometry x="610" y="160" width="60" height="30" as="geometry" />
        </mxCell>
        <mxCell id="0miQY7e_goJAAEUT_-6N-26" value="Notify" style="text;html=1;strokeColor=#FFFFFF;fillColor=none;align=center;verticalAlign=middle;whiteSpace=wrap;rounded=0;fontColor=#FF3333;strokeWidth=3;" parent="WIyWlLk6GJQsqaUBKTNV-1" vertex="1">
          <mxGeometry x="450" y="270" width="60" height="30" as="geometry" />
        </mxCell>
        <mxCell id="0miQY7e_goJAAEUT_-6N-28" value="" style="endArrow=classic;html=1;rounded=0;strokeColor=#FFFFFF;fontColor=#FF3333;strokeWidth=3;" parent="WIyWlLk6GJQsqaUBKTNV-1" edge="1">
          <mxGeometry width="50" height="50" relative="1" as="geometry">
            <mxPoint x="500" y="310" as="sourcePoint" />
            <mxPoint x="500" y="310" as="targetPoint" />
            <Array as="points">
              <mxPoint x="500" y="260" />
            </Array>
          </mxGeometry>
        </mxCell>
        <mxCell id="0miQY7e_goJAAEUT_-6N-29" value="Entities&amp;nbsp;" style="rounded=1;whiteSpace=wrap;html=1;fontSize=12;glass=0;strokeWidth=3;shadow=0;strokeColor=#FFFFFF;" parent="WIyWlLk6GJQsqaUBKTNV-1" vertex="1">
          <mxGeometry x="820" y="315" width="160" height="40" as="geometry" />
        </mxCell>
        <mxCell id="0miQY7e_goJAAEUT_-6N-33" value="Stick" style="rounded=1;whiteSpace=wrap;html=1;fontSize=12;glass=0;strokeWidth=3;shadow=0;strokeColor=#FFFFFF;" parent="WIyWlLk6GJQsqaUBKTNV-1" vertex="1">
          <mxGeometry x="820" y="230" width="160" height="40" as="geometry" />
        </mxCell>
        <mxCell id="0miQY7e_goJAAEUT_-6N-34" value="Building" style="rounded=1;whiteSpace=wrap;html=1;fontSize=12;glass=0;strokeWidth=3;shadow=0;strokeColor=#FFFFFF;" parent="WIyWlLk6GJQsqaUBKTNV-1" vertex="1">
          <mxGeometry x="820" y="140" width="160" height="40" as="geometry" />
        </mxCell>
        <mxCell id="0miQY7e_goJAAEUT_-6N-39" value="Extends" style="endArrow=block;endSize=16;endFill=0;html=1;rounded=0;strokeColor=#FFFFFF;fontColor=#FF3333;entryX=0.5;entryY=1;entryDx=0;entryDy=0;exitX=0.5;exitY=0;exitDx=0;exitDy=0;strokeWidth=3;" parent="WIyWlLk6GJQsqaUBKTNV-1" source="0miQY7e_goJAAEUT_-6N-41" target="0miQY7e_goJAAEUT_-6N-29" edge="1">
          <mxGeometry width="160" relative="1" as="geometry">
            <mxPoint x="900" y="450" as="sourcePoint" />
            <mxPoint x="1030" y="400" as="targetPoint" />
            <Array as="points">
              <mxPoint x="900" y="430" />
            </Array>
          </mxGeometry>
        </mxCell>
        <mxCell id="0miQY7e_goJAAEUT_-6N-41" value="" style="rounded=1;whiteSpace=wrap;html=1;fontSize=12;glass=0;strokeWidth=3;shadow=0;strokeColor=#FFFFFF;" parent="WIyWlLk6GJQsqaUBKTNV-1" vertex="1">
          <mxGeometry x="730" y="470" width="160" height="40" as="geometry" />
        </mxCell>
        <mxCell id="0miQY7e_goJAAEUT_-6N-46" style="edgeStyle=none;rounded=0;orthogonalLoop=1;jettySize=auto;html=1;exitX=0.5;exitY=0;exitDx=0;exitDy=0;strokeColor=#FFFFFF;fontColor=#FF3333;startArrow=none;startFill=0;endArrow=none;endFill=0;strokeWidth=3;" parent="WIyWlLk6GJQsqaUBKTNV-1" source="0miQY7e_goJAAEUT_-6N-43" edge="1">
          <mxGeometry relative="1" as="geometry">
            <mxPoint x="910" y="440" as="targetPoint" />
          </mxGeometry>
        </mxCell>
        <mxCell id="0miQY7e_goJAAEUT_-6N-43" value="" style="rounded=1;whiteSpace=wrap;html=1;fontSize=12;glass=0;strokeWidth=3;shadow=0;strokeColor=#FFFFFF;" parent="WIyWlLk6GJQsqaUBKTNV-1" vertex="1">
          <mxGeometry x="920" y="470" width="160" height="40" as="geometry" />
        </mxCell>
      </root>
    </mxGraphModel>
  </diagram>
  <diagram id="11ul4dJoPTuDeDDADtOx" name="Page-2">
    <mxGraphModel dx="946" dy="672" grid="1" gridSize="10" guides="1" tooltips="1" connect="1" arrows="1" fold="1" page="1" pageScale="1" pageWidth="1169" pageHeight="1654" math="0" shadow="0">
      <root>
        <mxCell id="0" />
        <mxCell id="1" parent="0" />
      </root>
    </mxGraphModel>
  </diagram>
</mxfile>
